Coordinates
version=1
nRows=23
nColumns=35
inDegrees=yes

Units are S.I. units (second, meters, Newtons, ...)
If the header above contains a line with 'inDegrees', this indicates whether rotational values are in degrees (yes) or radians (no).

endheader
time	joint_0	joint_1	joint_2	joint_3	joint_4	joint_5	joint_6	joint_7	joint_8	joint_9	joint_10	joint_11	joint_12	joint_13	joint_14	joint_15	joint_16	joint_17	joint_18	joint_19	joint_20	joint_21	joint_22	joint_23	joint_24	joint_25	joint_26	joint_27	joint_28	joint_29	joint_30	joint_31	joint_32	joint_33
11.450229	52.141735	4.938323	54.97975	40.02775	40.898808	-0.1764202	2.8002906	-4.239234	-3.9929488	-25.307993	9.999999e-07	5.783516	-3.5731478	-1.89184	-23.216846	9.999999e-07	5.002883	-7.523795	-0.22787698	-1.7767929	7.8596416	-6.1856446	18.747633	24.277733	76.39093	0.0	0.0	11.378216	-7.4211273	10.735267	24.03016	71.706985	0.0	0.0
11.466896	52.151016	4.938266	54.990696	40.028088	40.89921	-0.17309828	2.7897549	-4.2144995	-3.9892588	-25.328623	9.999999e-07	5.7790437	-3.5595946	-1.896365	-23.218012	9.999999e-07	5.004204	-7.5547633	-0.22977598	-1.754422	7.863373	-6.1987505	18.749247	24.27153	76.391754	0.0	0.0	11.34928	-7.44696	10.714406	24.015118	71.70022	0.0	0.0
11.483563	52.156345	4.9382086	55.002155	40.02871	40.89897	-0.16948898	2.7845151	-4.2018566	-3.984588	-25.350082	9.999999e-07	5.774243	-3.5533218	-1.901379	-23.217314	9.999999e-07	5.006994	-7.587127	-0.22764699	-1.7334399	7.873758	-6.212903	18.747263	24.268553	76.39128	0.0	0.0	11.330518	-7.473367	10.707875	24.005285	71.698425	0.0	0.0
11.50023	52.15474	4.938323	55.01052	40.029762	40.898243	-0.16404213	2.7804642	-4.1916256	-3.9793336	-25.374651	-0.0	5.7660174	-3.5432417	-1.905469	-23.219194	-0.0	5.009471	-7.611114	-0.22157998	-1.713794	7.891705	-6.2301927	18.744102	24.268215	76.39046	0.0	0.0	11.324424	-7.4989667	10.701996	24.000912	71.69695	0.0	0.0
11.516897000000002	52.145115	4.9388957	55.018257	40.03137	40.89712	-0.15503523	2.7743425	-4.1729226	-3.9737918	-25.407314	-2.9999999e-06	5.749651	-3.518812	-1.9075118	-23.226593	-3.9999995e-06	5.0095663	-7.6243324	-0.21116999	-1.6937009	7.9202995	-6.2537813	18.741114	24.270012	76.38984	0.0	0.0	11.333999	-7.525041	10.686671	24.002394	71.692444	0.0	0.0
11.533564000000002	52.129303	4.939297	55.03132	40.0334	40.89588	-0.14078914	2.7640543	-4.1357007	-3.9686317	-25.452091	-6.9999996e-06	5.7201395	-3.4720907	-1.906526	-23.240604	-8.999999e-06	5.0045347	-7.6289086	-0.19657099	-1.6717219	7.9620867	-6.2854896	18.739069	24.273434	76.38974	0.0	0.0	11.362235	-7.5525093	10.655965	24.010338	71.68297	0.0	0.0
11.550231000000002	52.111652	4.9385524	55.050285	40.03536	40.895023	-0.12047689	2.7492528	-4.0748205	-3.965148	-25.508102	-1.19999995e-05	5.6746483	-3.4008658	-1.9016039	-23.25996	-1.5999998e-05	4.9912004	-7.6285396	-0.179694	-1.6487129	8.016174	-6.3232937	18.73849	24.277962	76.390335	0.0	0.0	11.410799	-7.5794616	10.609586	24.025229	71.66843	0.0	0.0
11.566898000000002	52.097218	4.9364896	55.064835	40.036507	40.89517	-0.09473542	2.731332	-3.9922698	-3.9648306	-25.569605	-1.6999998e-05	5.614845	-3.3099678	-1.8923959	-23.281548	-2.2999999e-05	4.9674096	-7.62625	-0.16408499	-1.6270959	8.078786	-6.3622446	18.739443	24.283195	76.39167	0.0	0.0	11.478899	-7.6028275	10.552744	24.046633	71.6506	0.0	0.0
11.583565000000002	52.08954	4.9333954	55.063633	40.03633	40.89666	-0.06583533	2.7123675	-3.8962145	-3.9682288	-25.629923	-1.9e-05	5.5478187	-3.2096267	-1.8800919	-23.301847	-2.4999998e-05	4.934053	-7.6230817	-0.15329699	-1.6086699	8.145883	-6.3981314	18.741177	24.288883	76.393654	0.0	0.0	11.562911	-7.622058	10.493742	24.072645	71.6324	0.0	0.0
11.600232000000002	52.089367	4.9293275	55.046844	40.03487	40.899334	-0.037045475	2.694097	-3.7982497	-3.9742098	-25.684113	-1e-05	5.4845195	-3.1117988	-1.8675629	-23.318144	-1.3999999e-05	4.895617	-7.6180263	-0.149308	-1.5936619	8.214319	-6.4292197	18.74241	24.2947	76.39605	0.0	0.0	11.656874	-7.6398983	10.440593	24.100267	71.61665	0.0	0.0
11.616899000000002	52.09464	4.9246864	55.024445	40.032627	40.90265	-0.010434054	2.6773248	-3.70752	-3.9808376	-25.728909	1.7999999e-05	5.4345226	-3.0240338	-1.8577479	-23.32926	2.3999999e-05	4.857771	-7.60822	-0.152133	-1.5810419	8.283568	-6.4558897	18.74234	24.300116	76.39846	0.0	0.0	11.756411	-7.6605034	10.395786	24.127544	71.60416	0.0	0.0
11.633566000000002	52.101055	4.9210196	55.00582	40.030212	40.90606	0.014998114	2.6612518	-3.624248	-3.986996	-25.761469	7.2999996e-05	5.4001904	-2.9443548	-1.851712	-23.335707	9.999999e-05	4.82432	-7.5891757	-0.160341	-1.5696609	8.357438	-6.4804335	18.741674	24.304176	76.40023	0.0	0.0	11.862761	-7.68696	10.350704	24.155981	71.591415	0.0	0.0
11.650233000000002	52.105236	4.920447	54.993904	40.028168	40.909184	0.04227721	2.643579	-3.5407548	-3.9927597	-25.776524	0.00016	5.375722	-2.86369	-1.8484179	-23.338696	0.000217	4.7972856	-7.5548916	-0.171382	-1.5601039	8.441314	-6.5061936	18.743168	24.305166	76.40023	0.0	0.0	11.980049	-7.718875	10.284577	24.19069	71.57	0.0	0.0
11.666900000000002	52.10667	4.923598	54.986973	40.02702	40.911697	0.07426371	2.6213205	-3.4471967	-3.998355	-25.763416	0.00026499998	5.3501816	-2.7719626	-1.8461049	-23.33866	0.00035999998	4.778773	-7.4967837	-0.181725	-1.5556638	8.539351	-6.536617	18.751472	24.30105	76.39662	0.0	0.0	12.111231	-7.7524214	10.1667385	24.23976	71.52715	0.0	0.0
11.683567000000002	52.10564	4.9301867	54.980038	40.027466	40.913082	0.11331781	2.5912933	-3.3331747	-4.002921	-25.706676	0.000346	5.3107615	-2.6597369	-1.8438818	-23.334278	0.00047099998	4.7713375	-7.404516	-0.187888	-1.5610919	8.656351	-6.575761	18.772285	24.290993	76.386925	0.0	0.0	12.259455	-7.7834477	9.959931	24.314302	71.44722	0.0	0.0
11.700234000000002	52.101627	4.9392395	54.966232	40.030403	40.91258	0.16139293	2.5509946	-3.1892128	-4.0038967	-25.591715	0.00031699997	5.246964	-2.5190809	-1.842665	-23.32241	0.00043199997	4.777315	-7.2727284	-0.18754598	-1.5802919	8.798723	-6.6285477	18.810265	24.277569	76.36872	0.0	0.0	12.42919	-7.810283	9.632154	24.426481	71.31672	0.0	0.0
11.716901000000002	52.093147	4.9494953	54.941536	40.036613	40.909313	0.21774189	2.5012507	-3.0156147	-3.9975448	-25.416424	4e-05	5.157827	-2.3512259	-1.8449439	-23.298733	5.4999997e-05	4.798225	-7.1107807	-0.179013	-1.6148748	8.972348	-6.6999965	18.864294	24.270374	76.341324	0.0	0.0	12.627332	-7.8360715	9.185677	24.584236	71.136406	0.0	0.0
11.733568000000002	52.077164	4.9604964	54.90647	40.046288	40.90266	0.2770819	2.4487355	-2.829365	-3.9803877	-25.199642	-0.000658	5.0566874	-2.172623	-1.8535739	-23.257614	-0.00089399994	4.83386	-6.9481525	-0.16015999	-1.6638329	9.183206	-6.7955976	18.923141	24.290615	76.30702	0.0	0.0	12.868789	-7.8712597	8.680919	24.788956	70.931244	0.0	0.0
11.750235000000002	52.049717	4.973445	54.863842	40.059116	40.892384	0.33288637	2.4031844	-2.653182	-3.9505458	-24.967958	-0.001919	4.9611287	-2.004464	-1.8704379	-23.189856	-0.0026089998	4.881253	-6.826263	-0.12872098	-1.7247908	9.439323	-6.922636	18.97012	24.372599	76.26855	0.0	0.0	13.175408	-7.9301205	8.206023	25.044138	70.737434	0.0	0.0
11.766902000000002	52.00898	4.9901757	54.81514	40.074623	40.878654	0.38236007	2.370696	-2.496631	-3.9085329	-24.730156	-0.0037179997	4.873677	-1.8558338	-1.8955878	-23.08153	-0.0050589996	4.933988	-6.7768536	-0.083524995	-1.796884	9.748029	-7.0893927	18.994572	24.558992	76.22453	0.0	0.0	13.562913	-8.021113	7.8097234	25.36706	70.57375	0.0	0.0
11.783569000000002	51.955925	5.0108595	54.762657	40.092335	40.86197	0.42707646	2.3511298	-2.352837	-3.8573499	-24.473753	-0.0056459997	4.7765956	-1.7213678	-1.927115	-22.918991	-0.0076859994	4.981851	-6.8047295	-0.025798999	-1.8821168	10.112668	-7.301208	18.996012	24.889658	76.1688	0.0	0.0	14.033526	-8.142808	7.4792047	25.78392	70.43247	0.0	0.0
11.800236000000002	51.890667	5.032288	54.71608	40.111637	40.843174	0.47124702	2.3400505	-2.206375	-3.8014407	-24.186993	-0.0066269995	4.646111	-1.5871129	-1.961896	-22.698961	-0.009025999	5.0119305	-6.8885007	0.040007	-1.983339	10.537593	-7.555058	18.978167	25.382244	76.095215	0.0	0.0	14.58544	-8.288881	7.1758833	26.305492	70.29591	0.0	0.0
11.816903000000002	51.80776	5.048961	54.690525	40.1318	40.823307	0.520714	2.3303807	-2.036275	-3.7450438	-23.876118	-0.0046699997	4.4686847	-1.4320339	-1.996426	-22.433855	-0.006373	5.0113926	-6.996388	0.10691399	-2.101399	11.038191	-7.8368845	18.942738	26.017323	76.00269	0.0	0.0	15.227974	-8.453621	6.872675	26.907385	70.15367	0.0	0.0
